<?xml version="1.0" encoding="utf-8"?>
<!-- Generator: Adobe Illustrator 27.7.0, SVG Export Plug-In . SVG Version: 6.00 Build 0)  -->
<svg version="1.1" xmlns="http://www.w3.org/2000/svg" xmlns:xlink="http://www.w3.org/1999/xlink" x="0px" y="0px"
	 viewBox="0 0 1187.2 1187.2" enable-background="new 0 0 1187.2 1187.2" xml:space="preserve">
<g id="Layer_2">
	<circle fill="#FFFFFF" cx="593.6" cy="593.6" r="593.6"/>
</g>
<g id="Layer_1">
	<g id="g1865" transform="translate(-1.668 -1.1)">
		<path id="path1857" fill="#252F3E" d="M377.3,541c0,12.3,1.3,22.3,3.7,29.6c2.7,7.3,6,15.3,10.6,23.9c1.7,2.7,2.3,5.3,2.3,7.6
			c0,3.3-2,6.6-6.3,10l-20.9,14c-3,2-6,3-8.6,3c-3.3,0-6.6-1.7-10-4.7c-4.7-5-8.6-10.3-12-15.6c-3.3-5.6-6.6-12-10.3-19.6
			C299.8,619.7,267.3,635,228,635c-27.9,0-50.2-8-66.5-23.9c-16.3-16-24.6-37.2-24.6-63.8c0-28.2,10-51.2,30.2-68.5
			s47.2-25.9,81.4-25.9c11.3,0,22.9,1,35.2,2.7c12.3,1.7,24.9,4.3,38.2,7.3v-24.3c0-25.3-5.3-42.9-15.6-53.2
			c-10.6-10.3-28.6-15.3-54.2-15.3c-11.6,0-23.6,1.3-35.9,4.3c-12.3,3-24.3,6.6-35.9,11.3c-5.3,2.3-9.3,3.7-11.6,4.3
			c-2.3,0.7-4,1-5.3,1c-4.7,0-7-3.3-7-10.3v-16.3c0-5.3,0.7-9.3,2.3-11.6c1.7-2.3,4.7-4.7,9.3-7c11.6-6,25.6-11,41.9-15
			c16.3-4.3,33.6-6.3,51.8-6.3c39.5,0,68.5,9,87.1,26.9c18.3,17.9,27.6,45.2,27.6,81.8V541H377.3z M242.3,591.5c11,0,22.3-2,34.2-6
			c12-4,22.6-11.3,31.6-21.3c5.3-6.3,9.3-13.3,11.3-21.3c2-8,3.3-17.6,3.3-28.9v-14c-9.6-2.3-19.9-4.3-30.6-5.6s-20.9-2-31.2-2
			c-22.3,0-38.6,4.3-49.5,13.3c-11,9-16.3,21.6-16.3,38.2c0,15.6,4,27.3,12.3,35.2C215.4,587.5,227,591.5,242.3,591.5L242.3,591.5z
			 M509.2,627.4c-6,0-10-1-12.6-3.3c-2.7-2-5-6.6-7-13l-78.1-256.9c-2-6.6-3-11-3-13.3c0-5.3,2.7-8.3,8-8.3H449c6.3,0,10.6,1,13,3.3
			c2.7,2,4.7,6.6,6.6,13l55.8,220l51.8-220c1.7-6.6,3.7-11,6.3-13c2.7-2,7.3-3.3,13.3-3.3h26.6c6.3,0,10.6,1,13.3,3.3
			c2.7,2,5,6.6,6.3,13l52.5,222.7l57.5-222.7c2-6.6,4.3-11,6.6-13c2.7-2,7-3.3,13-3.3h30.9c5.3,0,8.3,2.7,8.3,8.3
			c0,1.7-0.3,3.3-0.7,5.3c-0.3,2-1,4.7-2.3,8.3l-80.1,256.9c-2,6.6-4.3,11-7,13c-2.7,2-7,3.3-12.6,3.3h-28.6c-6.3,0-10.6-1-13.3-3.3
			c-2.7-2.3-5-6.6-6.3-13.3l-51.5-214.4l-51.2,214c-1.7,6.6-3.7,11-6.3,13.3c-2.7,2.3-7.3,3.3-13.3,3.3H509.2z M936.3,636.3
			c-17.3,0-34.6-2-51.2-6c-16.6-4-29.6-8.3-38.2-13.3c-5.3-3-9-6.3-10.3-9.3s-2-6.3-2-9.3v-16.9c0-7,2.7-10.3,7.6-10.3
			c2,0,4,0.3,6,1s5,2,8.3,3.3c11.3,5,23.6,9,36.6,11.6c13.3,2.7,26.3,4,39.5,4c20.9,0,37.2-3.7,48.5-11
			c11.3-7.3,17.3-17.9,17.3-31.6c0-9.3-3-16.9-9-23.3c-6-6.3-17.3-12-33.6-17.3l-48.2-15c-24.3-7.6-42.2-18.9-53.2-33.9
			c-11-14.6-16.6-30.9-16.6-48.2c0-14,3-26.3,9-36.9s14-19.9,23.9-27.3c10-7.6,21.3-13.3,34.6-17.3c13.3-4,27.3-5.6,41.9-5.6
			c7.3,0,15,0.3,22.3,1.3c7.6,1,14.6,2.3,21.6,3.7c6.6,1.7,13,3.3,18.9,5.3c6,2,10.6,4,14,6c4.7,2.7,8,5.3,10,8.3c2,2.7,3,6.3,3,11
			v15.6c0,7-2.7,10.6-7.6,10.6c-2.7,0-7-1.3-12.6-4c-18.9-8.6-40.2-13-63.8-13c-18.9,0-33.9,3-44.2,9.3c-10.3,6.3-15.6,16-15.6,29.6
			c0,9.3,3.3,17.3,10,23.6c6.6,6.3,18.9,12.6,36.6,18.3l47.2,15c23.9,7.6,41.2,18.3,51.5,31.9c10.3,13.6,15.3,29.2,15.3,46.5
			c0,14.3-3,27.3-8.6,38.6c-6,11.3-14,21.3-24.3,29.2c-10.3,8.3-22.6,14.3-36.9,18.6C968.8,634,953.2,636.3,936.3,636.3L936.3,636.3
			z"/>
		<g id="g1863">
			<path id="path1859" fill-rule="evenodd" clip-rule="evenodd" fill="#FF9900" d="M999.1,797.9
				c-109.3,80.8-268.2,123.6-404.8,123.6c-191.4,0-363.9-70.8-494.2-188.4c-10.3-9.3-1-21.9,11.3-14.6
				c140.9,81.8,314.7,131.3,494.5,131.3c121.3,0,254.6-25.3,377.2-77.1C1001.4,764.3,1017,784.6,999.1,797.9z"/>
			<path id="path1861" fill-rule="evenodd" clip-rule="evenodd" fill="#FF9900" d="M1044.6,746c-14-17.9-92.4-8.6-127.9-4.3
				c-10.6,1.3-12.3-8-2.7-15c62.5-43.9,165.2-31.2,177.1-16.6c12,15-3.3,117.6-61.8,166.8c-9,7.6-17.6,3.7-13.6-6.3
				C1029,837.7,1058.6,763.6,1044.6,746z"/>
		</g>
	</g>
</g>
</svg>
