<?xml version="1.0" encoding="utf-8"?>
<!-- Generator: Adobe Illustrator 27.2.0, SVG Export Plug-In . SVG Version: 6.00 Build 0)  -->
<svg version="1.1" xmlns="http://www.w3.org/2000/svg" xmlns:xlink="http://www.w3.org/1999/xlink" x="0px" y="0px"
	 viewBox="0 0 14.3 14.3" style="enable-background:new 0 0 14.3 14.3;" xml:space="preserve">
<style type="text/css">
	.st0{fill:#0088E0;stroke:#0088E0;stroke-width:0.3;stroke-miterlimit:10;}
	.st1{fill:#FFFFFF;}
</style>
<g id="Layer_3">
	<circle class="st0" cx="7.2" cy="7.2" r="7"/>
</g>
<g id="Layer_1">
	<g>
		<g>
			<path class="st1" d="M10.1,7.6L7.7,3.7C7.5,3.3,7,3,6.5,3H3.3C2.8,3,2.3,3.3,2,3.7L0.8,5.8C0.7,5.9,0.8,6,0.9,6.1
				C1,6.1,1.1,6.1,1.2,6l1.2-2.1c0.2-0.3,0.5-0.5,0.9-0.5h3.2c0.4,0,0.7,0.2,0.9,0.5l2.3,3.9C9.7,8,9.9,8,10,7.9
				C10.1,7.9,10.1,7.7,10.1,7.6z"/>
			<path class="st1" d="M9.9,8.1C9.8,8.1,9.8,8.1,9.9,8.1C9.7,8.1,9.6,8,9.5,7.9L7.2,4C7.1,3.7,6.8,3.6,6.5,3.6H3.3
				C3,3.6,2.7,3.7,2.5,4L1.3,6.1C1.2,6.3,1,6.3,0.8,6.2C0.7,6.2,0.7,6.1,0.6,6c0-0.1,0-0.2,0-0.3l1.2-2.1c0.3-0.5,0.8-0.8,1.4-0.8
				h3.2c0.6,0,1.1,0.3,1.4,0.8l2.3,3.9c0.1,0.2,0,0.4-0.1,0.5C10,8.1,9.9,8.1,9.9,8.1z M3.3,3.3h3.2c0.4,0,0.8,0.2,1,0.6l2.3,3.9
				c0,0,0,0,0,0c0,0,0,0,0.1,0c0,0,0-0.1,0-0.1L7.6,3.8C7.4,3.4,6.9,3.1,6.5,3.1H3.3c-0.5,0-0.9,0.2-1.1,0.6L0.9,5.9c0,0,0,0,0,0.1
				c0,0,0,0,0,0c0,0,0.1,0,0.1,0l1.2-2.1C2.5,3.5,2.9,3.3,3.3,3.3z"/>
		</g>
		<g>
			<path class="st1" d="M11.4,5.6L9,1.7C8.8,1.3,8.3,1,7.8,1H5.4C5.3,1,5.2,1.1,5.2,1.2s0.1,0.2,0.2,0.2h2.4c0.4,0,0.7,0.2,0.9,0.5
				L11,5.9C11.1,6,11.2,6,11.3,5.9C11.4,5.9,11.4,5.7,11.4,5.6z"/>
			<path class="st1" d="M11.2,6.1c-0.1,0-0.2-0.1-0.3-0.2L8.5,2C8.4,1.7,8.1,1.6,7.8,1.6H5.4c-0.2,0-0.4-0.2-0.4-0.4
				s0.2-0.4,0.4-0.4h2.4c0.6,0,1.1,0.3,1.4,0.8l2.3,3.9c0.1,0.1,0.1,0.2,0,0.3c0,0.1-0.1,0.2-0.2,0.2C11.3,6.1,11.2,6.1,11.2,6.1z
				 M5.4,1.1C5.4,1.1,5.4,1.2,5.4,1.1c-0.1,0.1,0,0.1,0,0.1h2.4c0.4,0,0.8,0.2,1,0.6l2.3,3.9c0,0,0.1,0,0.1,0c0,0,0,0,0,0
				c0,0,0,0,0-0.1v0L8.9,1.8C8.7,1.4,8.3,1.1,7.8,1.1H5.4z"/>
		</g>
		<g>
			<path class="st1" d="M6.2,4.4l-2.2,4C3.8,8.6,3.8,8.8,3.8,9.1c0,0.2,0.1,0.5,0.2,0.7l1.6,2.8c0.3,0.4,0.7,0.7,1.2,0.7l2.4,0
				c0.1,0,0.2-0.1,0.2-0.2c0-0.1-0.1-0.2-0.2-0.2l-2.4,0c-0.4,0-0.7-0.2-0.8-0.5L4.3,9.6C4.2,9.4,4.2,9.2,4.2,9.1
				c0-0.2,0-0.3,0.1-0.5l2.2-4c0.1-0.1,0-0.2-0.1-0.3C6.4,4.2,6.3,4.3,6.2,4.4"/>
			<path class="st1" d="M9.2,13.5C9.2,13.5,9.2,13.5,9.2,13.5l-2.4,0c-0.6,0-1.1-0.3-1.4-0.8L3.8,9.9C3.7,9.6,3.6,9.3,3.6,9.1
				c0-0.3,0.1-0.5,0.2-0.8l2.2-4c0-0.1,0.1-0.1,0.2-0.2c0.1,0,0.2,0,0.3,0c0.1,0,0.1,0.1,0.2,0.2c0,0.1,0,0.2,0,0.3l-2.2,4
				C4.4,8.8,4.3,8.9,4.3,9.1c0,0.1,0,0.3,0.1,0.4l1.6,2.8c0.1,0.3,0.4,0.4,0.7,0.4l2.4,0c0.1,0,0.2,0,0.3,0.1
				c0.1,0.1,0.1,0.2,0.1,0.3C9.6,13.3,9.4,13.5,9.2,13.5z M6.4,4.4C6.4,4.4,6.4,4.4,6.4,4.4C6.4,4.4,6.3,4.4,6.4,4.4L6.4,4.4l-2.3,4
				C4,8.6,3.9,8.8,3.9,9.1c0,0.2,0.1,0.4,0.2,0.6l1.6,2.8c0.2,0.4,0.6,0.6,1.1,0.6l2.4,0h0c0,0,0.1,0,0.1-0.1c0,0,0-0.1-0.1-0.1
				l-2.4,0c-0.4,0-0.8-0.2-1-0.6L4.2,9.6C4.1,9.5,4,9.3,4,9.1c0-0.2,0.1-0.4,0.1-0.6l2.2-4C6.5,4.5,6.5,4.5,6.4,4.4
				C6.4,4.5,6.4,4.4,6.4,4.4C6.4,4.4,6.4,4.4,6.4,4.4z"/>
		</g>
		<g>
			<path class="st1" d="M3.8,4.2l-2.2,4C1.4,8.4,1.4,8.7,1.4,8.9c0,0.2,0.1,0.5,0.2,0.7l1.2,2.1c0.1,0.1,0.2,0.1,0.3,0.1
				c0.1-0.1,0.1-0.2,0.1-0.3L1.9,9.4C1.9,9.3,1.8,9.1,1.8,8.9c0-0.2,0-0.3,0.1-0.5l2.2-4c0.1-0.1,0-0.2-0.1-0.3
				C4,4.1,3.9,4.1,3.8,4.2"/>
			<path class="st1" d="M2.9,12c-0.1,0-0.3-0.1-0.3-0.2L1.4,9.7C1.3,9.5,1.2,9.2,1.2,8.9c0-0.3,0.1-0.5,0.2-0.8l2.2-4
				C3.8,4,4,3.9,4.2,4c0.1,0,0.1,0.1,0.2,0.2c0,0.1,0,0.2,0,0.3l-2.2,4C2,8.6,2,8.8,2,8.9c0,0.1,0,0.3,0.1,0.4l1.2,2.1
				c0.1,0.2,0,0.4-0.1,0.5C3.1,11.9,3,12,2.9,12z M3.9,4.3l-2.2,4C1.6,8.5,1.5,8.7,1.5,8.9c0,0.2,0.1,0.4,0.2,0.6l1.2,2.1
				c0,0,0.1,0,0.1,0c0,0,0-0.1,0-0.1L1.8,9.5C1.7,9.3,1.7,9.1,1.7,8.9c0-0.2,0.1-0.4,0.1-0.6l2.2-4C4.1,4.3,4.1,4.3,3.9,4.3
				C4,4.3,4,4.3,3.9,4.3L3.9,4.3z"/>
		</g>
		<g>
			<path class="st1" d="M5.8,9.5l4.3,0c0.5,0,1-0.3,1.2-0.7L12.8,6C13,5.7,13,5.5,13,5.2C13,5,13,4.8,12.9,4.5l-1.2-2.1
				c-0.1-0.1-0.2-0.1-0.3-0.1s-0.1,0.2-0.1,0.3l1.2,2.1c0.1,0.2,0.1,0.3,0.1,0.5c0,0.2,0,0.3-0.1,0.5l-1.6,2.8C10.7,8.8,10.4,9,10,9
				l-4.3,0c-0.1,0-0.2,0.1-0.2,0.2C5.5,9.4,5.6,9.5,5.8,9.5"/>
			<path class="st1" d="M5.7,9.7c-0.1,0-0.2,0-0.3-0.1S5.4,9.4,5.4,9.3c0-0.2,0.2-0.4,0.4-0.4l4.3,0c0.3,0,0.6-0.2,0.7-0.4l1.6-2.8
				c0.1-0.1,0.1-0.3,0.1-0.4c0-0.1,0-0.3-0.1-0.4l-1.2-2.1c-0.1-0.2,0-0.4,0.1-0.5c0.1,0,0.2-0.1,0.3,0c0.1,0,0.2,0.1,0.2,0.2
				L13,4.5c0.1,0.2,0.2,0.5,0.2,0.8c0,0.3-0.1,0.6-0.2,0.8l-1.6,2.8c-0.3,0.5-0.8,0.8-1.4,0.8L5.7,9.7C5.8,9.7,5.8,9.7,5.7,9.7z
				 M11.5,2.5C11.5,2.5,11.4,2.5,11.5,2.5c-0.1,0-0.1,0.1-0.1,0.1l1.2,2.1c0.1,0.2,0.1,0.4,0.1,0.6c0,0.2-0.1,0.4-0.2,0.6L11,8.6
				c-0.2,0.3-0.6,0.6-1,0.6l-4.3,0c0,0-0.1,0-0.1,0.1c0,0,0,0,0,0c0,0,0,0,0.1,0h0l4.3,0c0.5,0,0.9-0.2,1.1-0.6l1.6-2.8
				c0.1-0.2,0.2-0.4,0.2-0.6c0-0.2-0.1-0.4-0.2-0.6L11.5,2.5C11.5,2.5,11.5,2.5,11.5,2.5C11.5,2.5,11.5,2.5,11.5,2.5z"/>
		</g>
		<g>
			<path class="st1" d="M6.8,11.6l4.3,0c0.5,0,1-0.3,1.2-0.7l1.2-2.1c0.1-0.1,0-0.2-0.1-0.3c-0.1-0.1-0.2,0-0.3,0.1l-1.2,2.1
				c-0.2,0.3-0.5,0.5-0.8,0.5l-4.3,0c-0.1,0-0.2,0.1-0.2,0.2C6.6,11.5,6.7,11.6,6.8,11.6z"/>
			<path class="st1" d="M6.8,11.8c-0.2,0-0.4-0.2-0.4-0.4c0-0.1,0-0.2,0.1-0.3C6.6,11.1,6.7,11,6.8,11l4.3,0c0.3,0,0.6-0.2,0.7-0.4
				L13,8.5c0.1-0.2,0.3-0.2,0.5-0.1c0.1,0,0.1,0.1,0.2,0.2c0,0.1,0,0.2,0,0.3L12.4,11c-0.3,0.5-0.8,0.8-1.4,0.8L6.8,11.8
				C6.8,11.8,6.8,11.8,6.8,11.8z M13.3,8.6C13.3,8.6,13.3,8.7,13.3,8.6l-1.2,2.1c-0.2,0.3-0.6,0.6-1,0.6l-4.3,0c0,0,0,0,0,0
				c0,0,0,0,0,0.1c0,0,0,0.1,0.1,0.1h0l4.3,0c0.5,0,0.9-0.2,1.1-0.6l1.2-2.1C13.4,8.7,13.4,8.7,13.3,8.6C13.4,8.7,13.4,8.7,13.3,8.6
				C13.3,8.6,13.3,8.6,13.3,8.6z"/>
		</g>
	</g>
</g>
</svg>
