<?xml version="1.0" encoding="utf-8"?>
<!-- Generator: Adobe Illustrator 27.7.0, SVG Export Plug-In . SVG Version: 6.00 Build 0)  -->
<svg version="1.1" id="Layer_1" xmlns="http://www.w3.org/2000/svg" xmlns:xlink="http://www.w3.org/1999/xlink" x="0px" y="0px"
	 viewBox="0 0 117 117" enable-background="new 0 0 117 117" xml:space="preserve">
<path fill="#333333" d="M58.5,117L58.5,117C26.2,117,0,90.8,0,58.5v0C0,26.2,26.2,0,58.5,0h0C90.8,0,117,26.2,117,58.5v0
	C117,90.8,90.8,117,58.5,117z"/>
<g>
	<path fill="#FFFFFF" d="M49.1,39.3v6h4c1.3,0,2.4,1,2.4,2.3v30.7C48.9,76.9,44,71.1,44,64.2V45.3v-3.9c0-8,6.5-14.5,14.5-14.5
		c5.5,0,10.3,3.1,12.7,7.5h6.6C74.9,26.6,67.4,21,58.5,21c-10.6,0-19.3,8-20.4,18.3H26.6v6H38v18.8c0,10.3,7.6,18.8,17.5,20.2V96h6
		V84.4v-6.1V47.7c0-1.3,1.1-2.3,2.4-2.3h26.5v-6H49.1z"/>
	<path fill="#FFFFFF" d="M66.3,76.4v6.7C73.8,80,79,72.7,79,64.2h-6C73,69.3,70.3,73.8,66.3,76.4z"/>
</g>
</svg>
