<?xml version="1.0" encoding="utf-8"?>
<!-- Generator: Adobe Illustrator 27.7.0, SVG Export Plug-In . SVG Version: 6.00 Build 0)  -->
<svg version="1.1" id="Layer_1" xmlns="http://www.w3.org/2000/svg" xmlns:xlink="http://www.w3.org/1999/xlink" x="0px" y="0px"
	 viewBox="0 0 48.2 48.2" enable-background="new 0 0 48.2 48.2" xml:space="preserve">
<path fill="#DD4326" d="M18.3,41.3c-3,0-5.4-2.4-5.4-5.4V32c0-0.3-0.2-1.2-0.8-1.8c-0.5-0.5-1.6-0.8-1.9-0.8H6.5
	c-3,0-5.4-2.4-5.4-5.4c0-2.9,2.4-5.3,5.4-5.3h3.7c0,0,1.2-0.1,1.9-0.8c0.5-0.5,0.8-1.8,0.8-1.9v-3.8c0-3,2.4-5.4,5.4-5.4
	c2.6,0,4.7,1.8,5.3,4.2c0.1,0.3,0.1,0.7,0.1,1.1V16c0,0.3,0.2,1.2,0.8,1.8c0.8,0.8,1.9,0.9,1.9,0.9H30c3,0,5.4,2.4,5.4,5.4
	S33,29.4,30,29.4S24.6,27,24.6,24v-3.8c0-0.3-0.2-1.2-0.8-1.8c-0.5-0.5-1.6-0.8-1.8-0.8h-7.6c0,0-1.2,0.1-1.9,0.8
	c-0.5,0.5-0.8,1.5-0.8,1.8v7.6c0,0.2,0.2,1.2,0.8,1.8c0.8,0.8,1.9,0.8,1.9,0.8h3.7c3,0,5.4,2.4,5.4,5.4
	C23.5,38.8,21.1,41.3,18.3,41.3z M24.5,12.4c0,3,2.4,5.4,5.4,5.4h3.7c0,0,1.1,0.1,1.9,0.8c0.5,0.5,0.8,1.6,0.8,1.8V28
	c0,0.3-0.2,1.1-0.8,1.8c-0.7,0.7-1.9,0.8-1.9,0.8h-7.5c-0.3,0-1.2-0.2-1.8-0.8c-0.5-0.5-0.8-1.4-0.8-1.8v-3.8c0-3-2.4-5.4-5.4-5.4
	s-5.4,2.4-5.4,5.4s2.4,5.4,5.4,5.4H22c0,0,1.1,0.1,1.9,0.9c0.5,0.5,0.8,1.6,0.8,1.8V36c0,0.4,0,0.7,0.1,1.1c0.5,2.4,2.6,4.2,5.3,4.2
	c3,0,5.4-2.4,5.4-5.4V32c0-0.2,0.2-1.2,0.8-1.9c0.7-0.7,1.9-0.9,1.9-0.8h3.7c3,0,5.4-2.4,5.4-5.4s-2.4-5.4-5.4-5.4H38
	c-0.2,0-1.2-0.2-1.9-0.8c-0.5-0.5-0.8-1.5-0.8-1.8v-3.7C35.4,9.4,33,7,30,7C26.9,7.1,24.5,9.4,24.5,12.4z"/>
</svg>
