<svg version="1.1" id="Layer_1" xmlns="http://www.w3.org/2000/svg" xmlns:xlink="http://www.w3.org/1999/xlink" x="0px" y="0px"
	 viewBox="0 0 185 185" enable-background="new 0 0 185 185" xml:space="preserve">
<circle fill="#FFFFFF" cx="92.5" cy="92.5" r="92.5"/>
<g id="g6" transform="translate(-0.81,-0.35400034)">
	<polygon id="polygon10" fill="#F15B22" points="149.933,85.155 156.973,92.914 163.751,85.155 178.225,85.155 164.08,101.061 
		178.419,117.097 163.361,117.097 156.387,109.277 149.477,117.097 134.937,117.097 149.15,101.127 134.937,85.155 	"/>
	<polygon id="polygon12" fill="#F15B22" points="134.937,85.155 134.937,95.948 118.839,95.948 118.839,105.851 134.937,105.851 
		134.937,117.097 107.009,117.097 107.009,66.781 134.937,66.781 134.937,77.996 118.839,77.996 118.839,85.155 	"/>
	<path id="path14" fill="#312876" d="M95.229,66.781v20.592h-0.13c-2.61-2.998-5.868-4.04-9.648-4.04
		c-7.745,0-13.58,5.267-15.627,12.227c-2.338-7.669-8.362-12.372-17.294-12.372c-7.253,0-12.982,3.255-15.97,8.561v-6.594H21.566
		v-7.159h16.362V66.781H8.201v50.316h13.365v-21.15h13.322c-0.397,1.553-0.61,3.218-0.61,4.974c0,10.495,8.019,17.861,18.251,17.861
		c8.606,0,14.277-4.04,17.275-11.405H58.35c-1.549,2.215-2.724,2.87-5.821,2.87c-3.591,0-6.688-3.133-6.688-6.847h23.322
		c1.012,8.336,7.506,15.525,16.417,15.525c3.844,0,7.364-1.891,9.516-5.083h0.13v3.258h11.781V66.781H95.229z M46.215,96.096
		c0.742-3.196,3.222-5.284,6.317-5.284c3.407,0,5.759,2.024,6.379,5.284C59.17,96.096,46.215,96.096,46.215,96.096z M88.077,109.437
		c-4.343,0-7.043-4.047-7.043-8.272c0-4.516,2.348-8.859,7.043-8.859c4.868,0,6.806,4.343,6.806,8.859
		C94.883,105.447,92.829,109.437,88.077,109.437z"/>
</g>
</svg>
