<?xml version="1.0" encoding="utf-8"?>
<!-- Generator: Adobe Illustrator 27.7.0, SVG Export Plug-In . SVG Version: 6.00 Build 0)  -->
<svg version="1.1" id="Layer_1" xmlns="http://www.w3.org/2000/svg" xmlns:xlink="http://www.w3.org/1999/xlink" x="0px" y="0px"
	 viewBox="0 0 86 86" enable-background="new 0 0 86 86" xml:space="preserve">
<g>
	<g>
		<g>
			<g id="eWKcrxLS1p94" transform="translate(0.000001 0.000001)">
				<path opacity="0.4" fill="#91C6DB" enable-background="new    " d="M46.2,29.9c0-4.3-3.2-7.9-7.1-7.9S32,25.6,32,29.9v26.1
					c0,4.3,3.2,7.9,7.1,7.9s7.1-3.5,7.1-7.9C46.2,56.1,46.2,29.9,46.2,29.9z"/>
				<path opacity="0.4" fill="#91C6DB" enable-background="new    " d="M69.9,29.9c0-4.3-3.2-7.9-7.1-7.9c-3.9,0-7.1,3.5-7.1,7.9
					v26.1c0,4.3,3.2,7.9,7.1,7.9c3.9,0,7.1-3.5,7.1-7.9C69.9,56.1,69.9,29.9,69.9,29.9z"/>
				<path opacity="0.85" fill="#88BA5A" enable-background="new    " d="M44.2,35.5c2.8-3.1,2.8-8,0-11.1s-7.3-3.1-10.1,0L10.4,50.5
					c-2.8,3.1-2.8,8,0,11.1s7.3,3.1,10.1,0L44.2,35.5z"/>
				<path opacity="0.85" fill="#4FBABD" enable-background="new    " d="M67.8,35.5c2.8-3.1,2.8-8,0-11.1s-7.3-3.1-10.1,0L34.1,50.5
					c-2.8,3.1-2.8,8,0,11.1c2.8,3.1,7.3,3.1,10.1,0L67.8,35.5z"/>
				<path opacity="0.8" fill="#0D4D89" enable-background="new    " d="M75.6,53c2.8-3.1,2.8-8,0-11.1c-2.8-3.1-7.3-3.1-10.1,0
					l-7.8,8.6c-2.8,3.1-2.8,8,0,11.1s7.3,3.1,10.1,0L75.6,53z"/>
			</g>
		</g>
	</g>
</g>
<circle fill="none" cx="43" cy="43" r="43"/>
</svg>
