<?xml version="1.0" encoding="utf-8"?>
<!-- Generator: Adobe Illustrator 27.7.0, SVG Export Plug-In . SVG Version: 6.00 Build 0)  -->
<svg version="1.1" xmlns="http://www.w3.org/2000/svg" xmlns:xlink="http://www.w3.org/1999/xlink" x="0px" y="0px"
	 viewBox="0 0 106.9 106" enable-background="new 0 0 106.9 106" xml:space="preserve">
<g id="Layer_2">
	<path fill="#FFFFFF" d="M53.9,0.4H53C23.9,0.4,0.4,23.9,0.4,53v0c0,29.1,23.6,52.6,52.6,52.6h0.9c29.1,0,52.6-23.6,52.6-52.6v0
		C106.5,23.9,83,0.4,53.9,0.4z"/>
</g>
<g id="Layer_1">
	<g>
		<polygon stroke="#000000" stroke-width="2" stroke-miterlimit="10" points="43,34.8 53.5,16.7 63.9,34.8 66.5,34.8 53.5,12.2 
			40.5,34.8 		"/>
		<polygon stroke="#000000" stroke-width="2" stroke-miterlimit="10" points="74.6,48.9 72,48.9 88.6,77.5 18.3,77.5 34.9,48.9 
			32.4,48.9 14.4,79.8 92.5,79.8 		"/>
	</g>
</g>
</svg>
