<?xml version="1.0" encoding="utf-8"?>
<!-- Generator: Adobe Illustrator 27.7.0, SVG Export Plug-In . SVG Version: 6.00 Build 0)  -->
<svg version="1.1" id="Layer_3" xmlns="http://www.w3.org/2000/svg" xmlns:xlink="http://www.w3.org/1999/xlink" x="0px" y="0px"
	 viewBox="0 0 284.3199463 450.9800415" style="enable-background:new 0 0 284.3199463 450.9800415;" xml:space="preserve">
<style type="text/css">
	.st0{fill:none;}
	.st1{fill:#999999;}
	.st2{fill:#557859;}
	.st3{fill:#96C67F;}
	.st4{fill:#593A1C;}
	.st5{fill:#A0B64E;}
	.st6{fill:#A97E2C;}
	.st7{fill:#E6E6E6;}
	.st8{fill:#F2F2F2;}
	.st9{fill:#CCCCCC;}
	.st10{fill:#1D130E;}
	.st11{fill:#FDFEFF;}
</style>
<g>
	<polygon class="st0" points="147.0599976,343.1400146 147.0599976,352.9400024 156.8699951,352.9400024 156.8699951,343.1400146 
		156.8699951,333.3400269 147.0599976,333.3400269 	"/>
	<rect x="156.8699951" y="352.9400024" class="st0" width="9.7999878" height="9.8099976"/>
	<polygon class="st1" points="274.5099487,274.5100098 274.5099487,284.3200073 274.5099487,294.1199951 284.3199463,294.1199951 
		284.3199463,284.3200073 284.3199463,274.5100098 	"/>
	<polygon class="st1" points="274.5099487,254.9000244 264.7099609,254.9000244 264.7099609,245.1000366 264.7099609,235.2999878 
		264.7099609,225.4899902 264.7099609,215.6900024 264.7099609,205.8800049 264.7099609,196.0800171 264.7099609,186.2800293 
		264.7099609,176.4700317 264.7099609,166.6699829 254.9099731,166.6699829 254.9099731,156.8599854 254.9099731,147.0599976 
		245.0999756,147.0599976 245.0999756,137.2600098 245.0999756,127.4500122 235.2999878,127.4500122 235.2999878,117.6500244 
		225.4899902,117.6500244 225.4899902,107.8400269 215.6900024,107.8400269 215.6900024,98.0400391 205.8899536,98.0400391 
		196.0799561,98.0400391 196.0799561,88.2399902 186.2799683,88.2399902 176.4699707,88.2399902 176.4699707,78.4299927 
		166.6699829,78.4299927 156.8699951,78.4299927 156.8699951,68.6300049 147.0599976,68.6300049 137.2599487,68.6300049 
		137.2599487,58.8300171 127.4499512,58.8300171 127.4499512,49.0200195 117.6499634,49.0200195 117.6499634,39.2200317 
		117.6499634,29.4100342 117.6499634,19.6099854 107.8499756,19.6099854 107.8499756,9.8099976 98.039978,9.8099976 98.039978,0 
		88.2399902,0 78.4299927,0 68.6299438,0 58.8299561,0 49.0199585,0 39.2199707,0 29.4099731,0 29.4099731,9.8099976 
		39.2199707,9.8099976 49.0199585,9.8099976 58.8299561,9.8099976 68.6299438,9.8099976 78.4299927,9.8099976 88.2399902,9.8099976 
		88.2399902,19.6099854 98.039978,19.6099854 98.039978,29.4100342 107.8499756,29.4100342 107.8499756,39.2200317 
		107.8499756,49.0200195 107.8499756,58.8300171 117.6499634,58.8300171 117.6499634,68.6300049 127.4499512,68.6300049 
		127.4499512,78.4299927 137.2599487,78.4299927 147.0599976,78.4299927 147.0599976,88.2399902 156.8699951,88.2399902 
		166.6699829,88.2399902 166.6699829,98.0400391 176.4699707,98.0400391 186.2799683,98.0400391 186.2799683,107.8400269 
		196.0799561,107.8400269 205.8899536,107.8400269 205.8899536,117.6500244 215.6900024,117.6500244 215.6900024,127.4500122 
		225.4899902,127.4500122 225.4899902,137.2600098 235.2999878,137.2600098 235.2999878,147.0599976 235.2999878,156.8599854 
		245.0999756,156.8599854 245.0999756,166.6699829 245.0999756,176.4700317 254.9099731,176.4700317 254.9099731,186.2800293 
		254.9099731,196.0800171 254.9099731,205.8800049 254.9099731,215.6900024 254.9099731,225.4899902 254.9099731,235.2999878 
		254.9099731,245.1000366 254.9099731,254.9000244 254.9099731,264.710022 254.9099731,274.5100098 264.7099609,274.5100098 
		274.5099487,274.5100098 274.5099487,264.710022 	"/>
	<rect x="254.9099731" y="323.5300293" class="st2" width="9.7999878" height="9.8099976"/>
	<rect x="245.0999756" y="323.5300293" class="st3" width="9.8099976" height="9.8099976"/>
	<rect x="245.0999756" y="313.7300415" class="st2" width="9.8099976" height="9.7999878"/>
	<polygon class="st4" points="254.9099731,254.9000244 254.9099731,245.1000366 254.9099731,235.2999878 254.9099731,225.4899902 
		245.0999756,225.4899902 245.0999756,235.2999878 245.0999756,245.1000366 245.0999756,254.9000244 235.2999878,254.9000244 
		235.2999878,264.710022 235.2999878,274.5100098 235.2999878,284.3200073 225.4899902,284.3200073 225.4899902,294.1199951 
		215.6900024,294.1199951 215.6900024,303.9199829 205.8899536,303.9199829 205.8899536,313.7300415 215.6900024,313.7300415 
		225.4899902,313.7300415 225.4899902,303.9199829 235.2999878,303.9199829 235.2999878,294.1199951 245.0999756,294.1199951 
		245.0999756,284.3200073 254.9099731,284.3200073 254.9099731,274.5100098 254.9099731,264.710022 	"/>
	<rect x="235.2999878" y="362.75" class="st5" width="9.7999878" height="9.7999878"/>
	<rect x="235.2999878" y="313.7300415" class="st3" width="9.7999878" height="9.7999878"/>
	<polygon class="st2" points="235.2999878,303.9199829 235.2999878,313.7300415 245.0999756,313.7300415 245.0999756,303.9199829 
		245.0999756,294.1199951 235.2999878,294.1199951 	"/>
	<polygon class="st3" points="225.4899902,382.3500366 215.6900024,382.3500366 215.6900024,372.5499878 205.8899536,372.5499878 
		196.0799561,372.5499878 186.2799683,372.5499878 186.2799683,382.3500366 196.0799561,382.3500366 205.8899536,382.3500366 
		205.8899536,392.1600342 215.6900024,392.1600342 225.4899902,392.1600342 235.2999878,392.1600342 245.0999756,392.1600342 
		245.0999756,382.3500366 235.2999878,382.3500366 	"/>
	<rect x="225.4899902" y="303.9199829" class="st3" width="9.8099976" height="9.8100586"/>
	<polygon class="st6" points="225.4899902,264.710022 225.4899902,254.9000244 215.6900024,254.9000244 215.6900024,264.710022 
		215.6900024,274.5100098 215.6900024,284.3200073 215.6900024,294.1199951 225.4899902,294.1199951 225.4899902,284.3200073 
		225.4899902,274.5100098 	"/>
	<rect x="205.8899536" y="313.7300415" width="9.8000488" height="9.7999878"/>
	<polygon class="st6" points="215.6900024,235.2999878 215.6900024,225.4899902 205.8899536,225.4899902 205.8899536,235.2999878 
		205.8899536,245.1000366 205.8899536,254.9000244 215.6900024,254.9000244 215.6900024,245.1000366 	"/>
	<rect x="196.0799561" y="333.3400269" class="st5" width="9.8099976" height="9.7999878"/>
	<path class="st2" d="M205.8899536,313.7300415v-9.8100586h9.8000488v-9.7999878v-9.7999878v-9.8099976v-9.7999878v-9.8099976
		h-9.8000488h-9.8099976v9.8099976h9.8099976v9.7999878h-9.8099976v9.8099976h-9.7999878v-9.8099976v-9.7999878v-9.8099976
		h-9.8099976v-9.7999878v-9.8000488v-9.8099976h-9.7999878v9.8099976v9.8000488v9.7999878h-9.7999878v9.8099976v9.7999878v9.8099976
		v9.7999878v9.7999878v9.8100586v9.7999878h9.7999878v9.8099976v9.7999878h9.7999878v9.7999878V362.75h9.8099976v9.7999878
		h9.7999878h9.8099976h9.8000488v9.8000488h9.7999878h9.8099976h9.7999878h9.8099976h9.7999878v-9.8000488V362.75h-9.7999878
		h-9.8099976v9.7999878h-9.7999878V362.75h9.7999878v-9.8099976h-9.7999878h-9.8099976v-9.7999878h-9.7999878v-9.7999878v-9.8099976
		h-9.8000488V313.7300415z M196.0799561,294.1199951v9.7999878h-9.7999878v-9.7999878H196.0799561z M205.8899536,343.1400146
		h-9.8099976v-9.7999878h9.8099976V343.1400146z"/>
	<rect x="196.0799561" y="264.710022" class="st5" width="9.8099976" height="9.7999878"/>
	<rect x="186.2799683" y="294.1199951" class="st5" width="9.7999878" height="9.7999878"/>
	<polygon class="st7" points="196.0799561,117.6500244 196.0799561,127.4500122 205.8899536,127.4500122 205.8899536,137.2600098 
		215.6900024,137.2600098 215.6900024,147.0599976 225.4899902,147.0599976 225.4899902,156.8599854 225.4899902,166.6699829 
		235.2999878,166.6699829 235.2999878,176.4700317 235.2999878,186.2800293 245.0999756,186.2800293 245.0999756,196.0800171 
		245.0999756,205.8800049 245.0999756,215.6900024 245.0999756,225.4899902 254.9099731,225.4899902 254.9099731,215.6900024 
		254.9099731,205.8800049 254.9099731,196.0800171 254.9099731,186.2800293 254.9099731,176.4700317 245.0999756,176.4700317 
		245.0999756,166.6699829 245.0999756,156.8599854 235.2999878,156.8599854 235.2999878,147.0599976 235.2999878,137.2600098 
		225.4899902,137.2600098 225.4899902,127.4500122 215.6900024,127.4500122 215.6900024,117.6500244 205.8899536,117.6500244 
		205.8899536,107.8400269 196.0799561,107.8400269 186.2799683,107.8400269 186.2799683,117.6500244 	"/>
	<polygon class="st3" points="176.4699707,362.75 176.4699707,352.9400024 176.4699707,343.1400146 166.6699829,343.1400146 
		166.6699829,333.3400269 166.6699829,323.5300293 156.8699951,323.5300293 156.8699951,333.3400269 156.8699951,343.1400146 
		156.8699951,352.9400024 166.6699829,352.9400024 166.6699829,362.75 166.6699829,372.5499878 156.8699951,372.5499878 
		147.0599976,372.5499878 137.2599487,372.5499878 127.4499512,372.5499878 127.4499512,382.3500366 137.2599487,382.3500366 
		147.0599976,382.3500366 156.8699951,382.3500366 166.6699829,382.3500366 176.4699707,382.3500366 176.4699707,372.5499878 
		186.2799683,372.5499878 186.2799683,362.75 	"/>
	<polygon class="st7" points="176.4699707,107.8400269 186.2799683,107.8400269 186.2799683,98.0400391 176.4699707,98.0400391 
		166.6699829,98.0400391 166.6699829,107.8400269 	"/>
	<polygon class="st3" points="147.0599976,294.1199951 147.0599976,303.9199829 147.0599976,313.7300415 147.0599976,323.5300293 
		156.8699951,323.5300293 156.8699951,313.7300415 156.8699951,303.9199829 156.8699951,294.1199951 156.8699951,284.3200073 
		147.0599976,284.3200073 	"/>
	<polygon class="st7" points="156.8699951,98.0400391 166.6699829,98.0400391 166.6699829,88.2399902 156.8699951,88.2399902 
		147.0599976,88.2399902 147.0599976,98.0400391 	"/>
	<path class="st2" d="M147.0599976,372.5499878h9.8099976h9.7999878V362.75h-9.7999878v-9.8099976h-9.8099976v-9.7999878v-9.7999878
		h-9.8000488h-9.8099976h-9.7999878h-9.7999878v9.7999878v9.7999878h9.7999878V362.75h9.7999878v9.7999878h9.8099976H147.0599976z
		 M127.4499512,343.1400146h9.8099976v9.7999878h-9.8099976V343.1400146z"/>
	<polygon points="137.2599487,323.5300293 127.4499512,323.5300293 117.6499634,323.5300293 107.8499756,323.5300293 
		107.8499756,333.3400269 117.6499634,333.3400269 127.4499512,333.3400269 137.2599487,333.3400269 147.0599976,333.3400269 
		156.8699951,333.3400269 156.8699951,323.5300293 147.0599976,323.5300293 	"/>
	<polygon class="st3" points="147.0599976,254.9000244 137.2599487,254.9000244 137.2599487,264.710022 137.2599487,274.5100098 
		147.0599976,274.5100098 147.0599976,264.710022 	"/>
	<rect x="127.4499512" y="343.1400146" class="st5" width="9.8099976" height="9.7999878"/>
	<polygon class="st7" points="137.2599487,88.2399902 147.0599976,88.2399902 147.0599976,78.4299927 137.2599487,78.4299927 
		127.4499512,78.4299927 127.4499512,88.2399902 	"/>
	<polygon class="st3" points="117.6499634,362.75 117.6499634,352.9400024 107.8499756,352.9400024 107.8499756,362.75 
		107.8499756,372.5499878 117.6499634,372.5499878 127.4499512,372.5499878 127.4499512,362.75 	"/>
	<rect x="117.6499634" y="68.6300049" class="st7" width="9.7999878" height="9.7999878"/>
	<polygon class="st4" points="117.6499634,323.5300293 127.4499512,323.5300293 137.2599487,323.5300293 147.0599976,323.5300293 
		147.0599976,313.7300415 137.2599487,313.7300415 127.4499512,313.7300415 117.6499634,313.7300415 107.8499756,313.7300415 
		98.039978,313.7300415 98.039978,303.9199829 98.039978,294.1199951 88.2399902,294.1199951 88.2399902,303.9199829 
		88.2399902,313.7300415 88.2399902,323.5300293 98.039978,323.5300293 107.8499756,323.5300293 	"/>
	<rect x="107.8499756" y="58.8300171" class="st7" width="9.7999878" height="9.7999878"/>
	<polygon class="st3" points="107.8499756,333.3400269 107.8499756,323.5300293 98.039978,323.5300293 98.039978,333.3400269 
		98.039978,343.1400146 98.039978,352.9400024 107.8499756,352.9400024 107.8499756,343.1400146 	"/>
	<polygon class="st6" points="98.039978,303.9199829 98.039978,313.7300415 107.8499756,313.7300415 117.6499634,313.7300415 
		127.4499512,313.7300415 137.2599487,313.7300415 147.0599976,313.7300415 147.0599976,303.9199829 147.0599976,294.1199951 
		147.0599976,284.3200073 147.0599976,274.5100098 137.2599487,274.5100098 137.2599487,264.710022 137.2599487,254.9000244 
		137.2599487,245.1000366 137.2599487,235.2999878 137.2599487,225.4899902 127.4499512,225.4899902 127.4499512,235.2999878 
		127.4499512,245.1000366 127.4499512,254.9000244 117.6499634,254.9000244 117.6499634,264.710022 117.6499634,274.5100098 
		117.6499634,284.3200073 107.8499756,284.3200073 107.8499756,274.5100098 107.8499756,264.710022 107.8499756,254.9000244 
		98.039978,254.9000244 98.039978,245.1000366 98.039978,235.2999878 98.039978,225.4899902 88.2399902,225.4899902 
		88.2399902,235.2999878 88.2399902,245.1000366 88.2399902,254.9000244 88.2399902,264.710022 88.2399902,274.5100098 
		88.2399902,284.3200073 88.2399902,294.1199951 98.039978,294.1199951 	"/>
	<polygon class="st7" points="107.8499756,235.2999878 107.8499756,225.4899902 98.039978,225.4899902 98.039978,235.2999878 
		98.039978,245.1000366 98.039978,254.9000244 107.8499756,254.9000244 107.8499756,245.1000366 	"/>
	<rect x="98.039978" y="117.6500244" class="st7" width="9.8099976" height="9.7999878"/>
	<rect x="98.039978" y="107.8400269" class="st8" width="9.8099976" height="9.8099976"/>
	<polygon class="st7" points="98.039978,49.0200195 98.039978,58.8300171 107.8499756,58.8300171 107.8499756,49.0200195 
		107.8499756,39.2200317 107.8499756,29.4100342 98.039978,29.4100342 98.039978,39.2200317 	"/>
	<polygon class="st7" points="98.039978,205.8800049 98.039978,196.0800171 98.039978,186.2800293 98.039978,176.4700317 
		98.039978,166.6699829 98.039978,156.8599854 98.039978,147.0599976 98.039978,137.2600098 98.039978,127.4500122 
		88.2399902,127.4500122 78.4299927,127.4500122 78.4299927,137.2600098 88.2399902,137.2600098 88.2399902,147.0599976 
		88.2399902,156.8599854 88.2399902,166.6699829 88.2399902,176.4700317 88.2399902,186.2800293 88.2399902,196.0800171 
		88.2399902,205.8800049 88.2399902,215.6900024 88.2399902,225.4899902 98.039978,225.4899902 98.039978,215.6900024 	"/>
	<rect x="88.2399902" y="19.6099854" class="st7" width="9.7999878" height="9.8000488"/>
	<polygon class="st4" points="88.2399902,274.5100098 78.4299927,274.5100098 78.4299927,284.3200073 78.4299927,294.1199951 
		88.2399902,294.1199951 88.2399902,284.3200073 	"/>
	<polygon class="st9" points="88.2399902,215.6900024 88.2399902,205.8800049 88.2399902,196.0800171 88.2399902,186.2800293 
		88.2399902,176.4700317 88.2399902,166.6699829 88.2399902,156.8599854 88.2399902,147.0599976 88.2399902,137.2600098 
		78.4299927,137.2600098 78.4299927,147.0599976 78.4299927,156.8599854 78.4299927,166.6699829 78.4299927,176.4700317 
		78.4299927,186.2800293 78.4299927,196.0800171 78.4299927,205.8800049 78.4299927,215.6900024 78.4299927,225.4899902 
		88.2399902,225.4899902 	"/>
	<rect x="78.4299927" y="78.4299927" class="st7" width="9.8099976" height="9.8099976"/>
	<rect x="78.4299927" y="9.8099976" class="st7" width="9.8099976" height="9.7999878"/>
	<polygon class="st1" points="78.4299927,274.5100098 88.2399902,274.5100098 88.2399902,264.710022 88.2399902,254.9000244 
		88.2399902,245.1000366 88.2399902,235.2999878 88.2399902,225.4899902 78.4299927,225.4899902 78.4299927,235.2999878 
		78.4299927,245.1000366 78.4299927,254.9000244 68.6299438,254.9000244 68.6299438,264.710022 68.6299438,274.5100098 
		68.6299438,284.3200073 68.6299438,294.1199951 78.4299927,294.1199951 78.4299927,284.3200073 	"/>
	<polygon class="st1" points="78.4299927,205.8800049 78.4299927,196.0800171 78.4299927,186.2800293 78.4299927,176.4700317 
		78.4299927,166.6699829 78.4299927,156.8599854 78.4299927,147.0599976 78.4299927,137.2600098 68.6299438,137.2600098 
		68.6299438,127.4500122 68.6299438,117.6500244 68.6299438,107.8400269 68.6299438,98.0400391 58.8299561,98.0400391 
		58.8299561,88.2399902 49.0199585,88.2399902 49.0199585,98.0400391 49.0199585,107.8400269 58.8299561,107.8400269 
		58.8299561,117.6500244 58.8299561,127.4500122 58.8299561,137.2600098 58.8299561,147.0599976 68.6299438,147.0599976 
		68.6299438,156.8599854 68.6299438,166.6699829 68.6299438,176.4700317 68.6299438,186.2800293 68.6299438,196.0800171 
		68.6299438,205.8800049 68.6299438,215.6900024 68.6299438,225.4899902 78.4299927,225.4899902 78.4299927,215.6900024 	"/>
	<polygon class="st9" points="78.4299927,117.6500244 78.4299927,107.8400269 68.6299438,107.8400269 68.6299438,117.6500244 
		68.6299438,127.4500122 68.6299438,137.2600098 78.4299927,137.2600098 78.4299927,127.4500122 	"/>
	<polygon class="st7" points="78.4299927,98.0400391 78.4299927,88.2399902 68.6299438,88.2399902 68.6299438,78.4299927 
		58.8299561,78.4299927 58.8299561,88.2399902 58.8299561,98.0400391 68.6299438,98.0400391 68.6299438,107.8400269 
		78.4299927,107.8400269 	"/>
	<rect x="49.0199585" y="78.4299927" class="st9" width="9.8099976" height="9.8099976"/>
	<rect x="49.0199585" y="58.8300171" class="st9" width="9.8099976" height="9.7999878"/>
	<rect x="49.0199585" y="49.0200195" width="9.8099976" height="9.8099976"/>
	<rect x="49.0199585" y="29.4100342" width="9.8099976" height="9.8099976"/>
	<rect x="49.0199585" y="19.6099854" class="st9" width="9.8099976" height="9.8000488"/>
	<polygon class="st1" points="39.2199707,78.4299927 29.4099731,78.4299927 19.6099854,78.4299927 9.8099976,78.4299927 
		9.8099976,88.2399902 19.6099854,88.2399902 29.4099731,88.2399902 39.2199707,88.2399902 49.0199585,88.2399902 
		49.0199585,78.4299927 	"/>
	<rect x="39.2199707" y="58.8300171" width="9.7999878" height="9.7999878"/>
	<polygon class="st10" points="49.0199585,29.4100342 39.2199707,29.4100342 39.2199707,39.2200317 29.4099731,39.2200317 
		29.4099731,49.0200195 39.2199707,49.0200195 39.2199707,58.8300171 49.0199585,58.8300171 49.0199585,49.0200195 
		58.8299561,49.0200195 58.8299561,39.2200317 49.0199585,39.2200317 	"/>
	<rect x="39.2199707" y="19.6099854" width="9.7999878" height="9.8000488"/>
	<rect x="29.4099731" y="58.8300171" class="st9" width="9.8099976" height="9.7999878"/>
	<rect x="29.4099731" y="49.0200195" width="9.8099976" height="9.8099976"/>
	<rect x="29.4099731" y="29.4100342" width="9.8099976" height="9.8099976"/>
	<rect x="29.4099731" y="19.6099854" class="st9" width="9.8099976" height="9.8000488"/>
	<polygon class="st11" points="29.4099731,78.4299927 39.2199707,78.4299927 49.0199585,78.4299927 58.8299561,78.4299927 
		68.6299438,78.4299927 68.6299438,88.2399902 78.4299927,88.2399902 78.4299927,78.4299927 88.2399902,78.4299927 
		88.2399902,88.2399902 78.4299927,88.2399902 78.4299927,98.0400391 78.4299927,107.8400269 78.4299927,117.6500244 
		78.4299927,127.4500122 88.2399902,127.4500122 98.039978,127.4500122 98.039978,117.6500244 98.039978,107.8400269 
		107.8499756,107.8400269 107.8499756,117.6500244 107.8499756,127.4500122 98.039978,127.4500122 98.039978,137.2600098 
		98.039978,147.0599976 98.039978,156.8599854 98.039978,166.6699829 98.039978,176.4700317 98.039978,186.2800293 
		98.039978,196.0800171 98.039978,205.8800049 98.039978,215.6900024 98.039978,225.4899902 107.8499756,225.4899902 
		107.8499756,235.2999878 107.8499756,245.1000366 107.8499756,254.9000244 107.8499756,264.710022 107.8499756,274.5100098 
		107.8499756,284.3200073 117.6499634,284.3200073 117.6499634,274.5100098 117.6499634,264.710022 117.6499634,254.9000244 
		127.4499512,254.9000244 127.4499512,245.1000366 127.4499512,235.2999878 127.4499512,225.4899902 137.2599487,225.4899902 
		137.2599487,235.2999878 137.2599487,245.1000366 137.2599487,254.9000244 147.0599976,254.9000244 147.0599976,264.710022 
		147.0599976,274.5100098 147.0599976,284.3200073 156.8699951,284.3200073 156.8699951,274.5100098 156.8699951,264.710022 
		156.8699951,254.9000244 166.6699829,254.9000244 166.6699829,245.1000366 166.6699829,235.2999878 166.6699829,225.4899902 
		176.4699707,225.4899902 176.4699707,235.2999878 176.4699707,245.1000366 176.4699707,254.9000244 186.2799683,254.9000244 
		186.2799683,264.710022 186.2799683,274.5100098 186.2799683,284.3200073 196.0799561,284.3200073 196.0799561,274.5100098 
		196.0799561,264.710022 196.0799561,254.9000244 205.8899536,254.9000244 205.8899536,245.1000366 205.8899536,235.2999878 
		205.8899536,225.4899902 215.6900024,225.4899902 215.6900024,235.2999878 215.6900024,245.1000366 215.6900024,254.9000244 
		225.4899902,254.9000244 225.4899902,264.710022 225.4899902,274.5100098 225.4899902,284.3200073 235.2999878,284.3200073 
		235.2999878,274.5100098 235.2999878,264.710022 235.2999878,254.9000244 245.0999756,254.9000244 245.0999756,245.1000366 
		245.0999756,235.2999878 245.0999756,225.4899902 245.0999756,215.6900024 245.0999756,205.8800049 245.0999756,196.0800171 
		245.0999756,186.2800293 235.2999878,186.2800293 235.2999878,176.4700317 235.2999878,166.6699829 225.4899902,166.6699829 
		225.4899902,156.8599854 225.4899902,147.0599976 215.6900024,147.0599976 215.6900024,137.2600098 205.8899536,137.2600098 
		205.8899536,127.4500122 196.0799561,127.4500122 196.0799561,117.6500244 186.2799683,117.6500244 186.2799683,107.8400269 
		176.4699707,107.8400269 166.6699829,107.8400269 166.6699829,98.0400391 156.8699951,98.0400391 147.0599976,98.0400391 
		147.0599976,88.2399902 137.2599487,88.2399902 127.4499512,88.2399902 127.4499512,78.4299927 117.6499634,78.4299927 
		117.6499634,68.6300049 107.8499756,68.6300049 107.8499756,58.8300171 98.039978,58.8300171 98.039978,49.0200195 
		98.039978,39.2200317 98.039978,29.4100342 88.2399902,29.4100342 88.2399902,19.6099854 78.4299927,19.6099854 
		78.4299927,9.8099976 68.6299438,9.8099976 58.8299561,9.8099976 49.0199585,9.8099976 39.2199707,9.8099976 29.4099731,9.8099976 
		29.4099731,19.6099854 39.2199707,19.6099854 49.0199585,19.6099854 58.8299561,19.6099854 58.8299561,29.4100342 
		58.8299561,39.2200317 58.8299561,49.0200195 58.8299561,58.8300171 58.8299561,68.6300049 49.0199585,68.6300049 
		39.2199707,68.6300049 29.4099731,68.6300049 29.4099731,58.8300171 29.4099731,49.0200195 29.4099731,39.2200317 
		29.4099731,29.4100342 29.4099731,19.6099854 19.6099854,19.6099854 19.6099854,29.4100342 9.8099976,29.4100342 
		9.8099976,39.2200317 9.8099976,49.0200195 9.8099976,58.8300171 9.8099976,68.6300049 9.8099976,78.4299927 
		19.6099854,78.4299927 	"/>
	<rect x="19.6099854" y="9.8099976" class="st1" width="9.7999878" height="9.7999878"/>
	<rect x="9.8099976" y="19.6099854" class="st1" width="9.7999878" height="9.8000488"/>
	<polygon class="st1" points="9.8099976,58.8300171 9.8099976,49.0200195 9.8099976,39.2200317 9.8099976,29.4100342 0,29.4100342 
		0,39.2200317 0,49.0200195 0,58.8300171 0,68.6300049 0,78.4299927 9.8099976,78.4299927 9.8099976,68.6300049 	"/>
</g>
</svg>
