<?xml version="1.0" encoding="utf-8"?>
<!-- Generator: Adobe Illustrator 27.7.0, SVG Export Plug-In . SVG Version: 6.00 Build 0)  -->
<svg version="1.1" id="Layer_3" xmlns="http://www.w3.org/2000/svg" xmlns:xlink="http://www.w3.org/1999/xlink" x="0px" y="0px"
	 viewBox="0 0 284.3199463 450.9800415" style="enable-background:new 0 0 284.3199463 450.9800415;" xml:space="preserve">
<g>
	<polygon points="245.0999756,421.5700073 235.2999878,421.5700073 225.4899902,421.5700073 215.6900024,421.5700073 
		205.8899536,421.5700073 196.0799561,421.5700073 186.2799683,421.5700073 176.4699707,421.5700073 166.6699829,421.5700073 
		156.8699951,421.5700073 147.0599976,421.5700073 137.2599487,421.5700073 127.4499512,421.5700073 117.6499634,421.5700073 
		107.8499756,421.5700073 98.039978,421.5700073 98.039978,431.3699951 88.2399902,431.3699951 88.2399902,441.1799927 
		98.039978,441.1799927 98.039978,450.9800415 107.8499756,450.9800415 117.6499634,450.9800415 127.4499512,450.9800415 
		137.2599487,450.9800415 147.0599976,450.9800415 156.8699951,450.9800415 166.6699829,450.9800415 176.4699707,450.9800415 
		186.2799683,450.9800415 196.0799561,450.9800415 205.8899536,450.9800415 215.6900024,450.9800415 225.4899902,450.9800415 
		235.2999878,450.9800415 245.0999756,450.9800415 245.0999756,441.1799927 254.9099731,441.1799927 254.9099731,431.3699951 
		245.0999756,431.3699951 	"/>
</g>
</svg>
